<svg t="1562314376345" class="icon" viewBox="0 0 1024 1024" version="1.1" xmlns="http://www.w3.org/2000/svg" p-id="4139"
     width="24" height="24">
    <path d="M711.603 387.791h215.391c16.918 0 29.659 8.595 29.659 26.744 0 18.155-14.712 26.75-31.63 26.75h-213.42c-16.926 0-30.657-8.595-30.657-26.75 0-18.15 13.731-26.744 30.657-26.744zM956.089 537.1c0 18.151-12.749 26.752-29.662 26.752H757.276c-16.926 0-30.657-8.598-30.657-26.752 0-18.15 13.731-26.743 30.657-26.743h170.133c16.916 0 28.68 8.593 28.68 26.743zM800.847 814.386c0 39.784-32.309 64.124-72.026 64.124H136.628c-39.711 0-72.024-24.337-72.024-64.124v-17.288c0-36.454 26.84-68.769 61.1-81.065l146.643-65.365s39.75-12.218 50.631-24.412c7.24-8.122 9.474-34.902 0.297-52.481-9.175-17.577-83.478-114.29-83.478-195.41 0-130.822 85.991-236.877 192.061-236.877 106.074 0 192.058 106.055 192.058 236.877 0 84.696-83.38 177.935-90.234 200.878-6.859 22.944-7.413 40.903 0.334 48.524 12.05 11.843 43.063 23.888 43.063 23.888l162.67 63.391c34.263 12.302 61.101 45.602 61.101 82.056l-0.003 17.284zM926.918 679.3H813.853c-16.921 0-30.653-8.595-30.653-26.753 0-18.147 13.732-26.743 30.653-26.743h114.05c16.921 0 29.647 8.595 29.647 26.743 0 18.154-13.712 26.752-30.632 26.752z"
          p-id="4140" fill="#ffffff"></path>
</svg>